<svg width="657" height="234" viewBox="0 0 657 234" fill="none" xmlns="http://www.w3.org/2000/svg">
<g filter="url(#filter0_d_5_5766)">
<path d="M353.144 1.51732C334.843 3.21187 312.136 9.65116 297.224 17.1072C280.279 25.5799 254.86 43.5422 254.86 47.2702C254.86 48.6258 260.283 52.3538 267.061 55.0651C292.479 65.5713 334.504 103.868 340.266 121.492C341.282 124.203 346.705 122.847 356.872 116.747C391.78 96.0732 448.717 92.0063 483.286 107.257C493.792 111.663 502.604 113.358 509.382 112.002C518.532 110.307 519.549 108.952 517.516 101.157C507.687 61.5044 444.989 10.329 398.897 4.2286C368.734 0.500587 365.345 0.161677 353.144 1.51732Z" fill="#0BCE83"/>
<path d="M181.995 60.4877C149.798 65.2324 126.752 76.7554 101.673 100.14C87.0999 113.358 89.4722 116.747 115.229 118.441C127.769 119.458 145.053 123.186 153.865 127.253C187.078 141.826 218.258 180.462 223.681 214.014L226.392 227.909L281.295 229.943L283.668 218.759C289.09 195.035 300.274 170.633 314.17 153.349L328.743 135.387L317.559 118.441C288.751 76.0775 233.509 52.3538 181.995 60.4877Z" fill="#0BCE83"/>
<path d="M392.458 120.136C360.939 129.625 332.132 152.332 316.542 179.445C310.781 189.612 298.919 222.826 298.919 228.587C298.919 229.265 323.998 229.604 354.839 229.604H410.759V217.742C410.759 194.018 423.977 168.261 448.378 144.198L471.424 121.491L458.884 117.763C441.261 113.019 412.115 114.035 392.458 120.136Z" fill="#0BCE83"/>
<path d="M499.215 131.659C462.273 142.504 427.705 185.207 427.705 220.114V229.604H558.185L563.946 219.436C570.725 207.236 586.992 196.729 606.649 191.985C614.444 189.951 620.883 186.901 620.883 185.545C620.883 184.19 616.139 176.734 610.716 168.939C599.193 153.349 575.13 136.403 556.49 131.32C541.917 127.253 514.466 127.592 499.215 131.659Z" fill="#0BCE83"/>
<path d="M66.4264 141.487C34.2299 154.366 8.13384 184.868 2.37237 216.725L0 229.604H208.43L206.057 215.031C201.652 187.579 176.572 157.077 146.748 142.843C127.769 133.692 87.7777 133.014 66.4264 141.487Z" fill="#0BCE83"/>
<path d="M609.021 209.269C597.498 211.642 580.214 222.148 580.214 226.554C580.214 228.248 597.837 229.604 619.189 229.604C649.013 229.604 657.486 228.587 656.13 225.198C652.063 214.353 626.306 205.541 609.021 209.269Z" fill="#0BCE83"/>
</g>
<defs>
<filter id="filter0_d_5_5766" x="0" y="0.788818" width="656.267" height="233.154" filterUnits="userSpaceOnUse" color-interpolation-filters="sRGB">
<feFlood flood-opacity="0" result="BackgroundImageFix"/>
<feColorMatrix in="SourceAlpha" type="matrix" values="0 0 0 0 0 0 0 0 0 0 0 0 0 0 0 0 0 0 127 0" result="hardAlpha"/>
<feOffset dy="4"/>
<feComposite in2="hardAlpha" operator="out"/>
<feColorMatrix type="matrix" values="0 0 0 0 0 0 0 0 0 0 0 0 0 0 0 0 0 0 1 0"/>
<feBlend mode="normal" in2="BackgroundImageFix" result="effect1_dropShadow_5_5766"/>
<feBlend mode="normal" in="SourceGraphic" in2="effect1_dropShadow_5_5766" result="shape"/>
</filter>
</defs>
</svg>
