<svg width="1893" height="370" viewBox="0 0 1893 370" fill="none" xmlns="http://www.w3.org/2000/svg">
<g filter="url(#filter0_d_23_32)">
<path d="M353.144 70.9736C334.843 72.6682 312.136 79.1075 297.224 86.5635C280.279 95.0362 254.86 112.998 254.86 116.726C254.86 118.082 260.283 121.81 267.061 124.521C292.479 135.028 334.504 173.324 340.266 190.948C341.282 193.659 346.705 192.303 356.872 186.203C391.78 165.53 448.717 161.463 483.286 176.714C493.792 181.119 502.604 182.814 509.382 181.458C518.532 179.764 519.549 178.408 517.516 170.613C507.687 130.961 444.989 79.7853 398.897 73.6849C368.734 69.9569 365.345 69.618 353.144 70.9736Z" fill="#0BCE83"/>
<path d="M181.995 129.944C149.798 134.689 126.752 146.212 101.673 169.596C87.0999 182.814 89.4722 186.203 115.229 187.898C127.769 188.914 145.053 192.642 153.865 196.709C187.078 211.282 218.258 249.918 223.681 283.47L226.392 297.366L281.295 299.399L283.668 288.215C289.09 264.491 300.274 240.09 314.17 222.805L328.743 204.843L317.559 187.898C288.751 145.534 233.509 121.81 181.995 129.944Z" fill="#0BCE83"/>
<path d="M392.458 189.592C360.939 199.082 332.132 221.789 316.542 248.901C310.781 259.069 298.919 292.282 298.919 298.043C298.919 298.721 323.998 299.06 354.839 299.06H410.759V287.198C410.759 263.474 423.977 237.717 448.378 213.655L471.424 190.948L458.884 187.22C441.261 182.475 412.115 183.492 392.458 189.592Z" fill="#0BCE83"/>
<path d="M499.215 201.115C462.273 211.96 427.705 254.663 427.705 289.571V299.06H558.185L563.946 288.893C570.725 276.692 586.992 266.186 606.649 261.441C614.444 259.408 620.883 256.357 620.883 255.002C620.883 253.646 616.139 246.19 610.716 238.395C599.193 222.805 575.13 205.86 556.49 200.776C541.917 196.709 514.466 197.048 499.215 201.115Z" fill="#0BCE83"/>
<path d="M66.4264 210.943C34.2299 223.822 8.13384 254.324 2.37237 286.181L0 299.06H208.43L206.057 284.487C201.652 257.035 176.572 226.533 146.748 212.299C127.769 203.148 87.7777 202.471 66.4264 210.943Z" fill="#0BCE83"/>
<path d="M609.021 278.725C597.498 281.098 580.214 291.604 580.214 296.01C580.214 297.704 597.837 299.06 619.189 299.06C649.013 299.06 657.486 298.043 656.13 294.654C652.063 283.809 626.306 274.997 609.021 278.725Z" fill="#0BCE83"/>
</g>
<path d="M1615.37 1.65604C1594.12 7.55749 1578.26 26.1799 1573.4 50.966C1572.49 55.6871 1571.57 59.6214 1571.57 59.7526C1571.44 60.0149 1563.7 52.5397 1554.39 43.3597C1539.83 28.8027 1536.55 26.1799 1531.18 24.7373C1523.31 22.639 1512.55 23.6881 1505.6 27.229C1498.91 30.6387 1498.78 30.6387 1498.78 26.9667C1498.78 24.9996 1495.37 20.5407 1488.55 13.8524L1478.46 3.75433H1421.41V78.5061C1421.41 119.554 1421.28 153.258 1421.15 153.258C1420.88 153.258 1412.49 145.127 1402.39 135.16C1388.23 121.259 1381.93 116.013 1374.85 112.341C1361.87 105.653 1351.12 103.03 1335.51 103.03C1321.35 103.03 1314.79 104.341 1302.99 109.587L1295.38 112.997L1292.49 110.112C1289.61 107.489 1288.3 107.358 1260.36 107.358H1231.25V147.225L1214.59 130.701C1197.15 113.521 1191.12 109.456 1176.83 105.259C1165.02 101.85 1146.27 102.243 1136.17 106.046C1127.91 109.194 1118.2 115.095 1110.6 121.652L1106.01 125.587L1102.07 121.915C1081.48 102.505 1050.53 97.1285 1025.75 108.669C1017.88 112.341 1017.62 112.341 1015.39 109.849C1013.29 107.489 1011.06 107.358 984.438 107.358H955.849V113.259C955.849 116.538 955.324 119.161 954.8 119.161C954.275 119.161 951.259 116.538 948.112 113.39L942.603 107.751L946.407 106.177C951.784 103.948 959.783 95.817 962.537 89.6533C965.554 83.0961 965.816 69.7195 963.062 63.1623C961.882 60.5394 954.275 51.4906 945.751 42.8351C928.309 25.2619 923.325 22.5078 909.949 23.8193C887.523 25.7864 874.278 47.0317 882.277 68.1458C884.638 74.4407 887.654 77.9815 901.424 91.4893L917.817 107.358H883.72V116.538C883.72 121.521 882.386 125.476 882.386 125.476V171.741L883.72 182.896V200.732L882.278 281.123L887.13 276.664L894.867 284.401L902.605 292.27H961.095V286.368C961.095 283.09 961.619 280.467 962.144 280.467C962.668 280.467 965.816 283.09 968.963 286.368L974.734 292.27H1033.22V239.813C1033.09 183.552 1033.09 183.552 1040.04 177.388C1044.63 173.061 1048.31 171.618 1053.94 171.618C1058.67 171.618 1059.19 172.011 1059.98 175.683C1060.37 177.913 1060.76 201.125 1060.76 227.092V274.434L1069.81 283.352L1078.99 292.27H1136.83V240.731C1136.83 193.388 1137.09 188.929 1139.32 183.945C1142.6 176.601 1148.63 172.536 1157.42 171.88L1164.37 171.356V273.385L1173.94 282.828L1183.38 292.27H1231.25V350.76L1240.82 360.202L1250.27 369.645H1308.62V326.367C1308.62 302.499 1308.89 283.09 1309.28 283.09C1309.67 283.09 1313.08 284.795 1316.89 287.024C1328.03 293.319 1338.39 296.335 1351.25 297.122C1373.8 298.434 1394.13 291.09 1410.79 275.746C1415.77 271.156 1420.23 267.353 1420.62 267.353C1421.01 267.353 1421.41 268.664 1421.41 270.369C1421.41 272.336 1424.69 276.533 1430.98 282.828L1440.42 292.27H1498.78V279.942L1511.37 292.27H1569.6V283.09C1569.6 277.975 1569.99 273.91 1570.65 273.91C1571.17 273.91 1575.76 278.106 1580.75 283.09L1589.8 292.27H1648.29V174.11L1653.79 174.503L1659.43 174.897L1679.24 211.617L1699.17 248.337L1673.73 298.303C1659.7 325.843 1648.29 349.186 1648.29 350.104C1648.29 351.153 1652.22 356.006 1657.2 360.858L1666.12 369.645H1732.87L1766.84 302.368C1785.46 265.517 1801.33 234.698 1801.86 234.042C1802.51 233.255 1803.04 236.665 1803.04 241.911C1803.04 255.55 1806.31 261.189 1824.15 278.631C1836.61 290.696 1840.28 293.581 1846.18 295.549C1863.23 301.188 1881.46 293.581 1889.85 277.32C1894.05 269.451 1894.05 254.369 1889.85 246.37C1885.26 237.583 1860.35 213.059 1852.74 209.65C1840.67 204.535 1826.12 206.371 1815.63 214.24C1812.35 216.862 1809.59 218.698 1809.59 218.305C1809.59 217.912 1819.69 197.584 1831.89 172.929C1844.21 148.406 1854.18 127.816 1854.18 127.291C1854.18 126.767 1849.85 122.046 1844.61 116.8L1835.17 107.358H1769.33L1753.46 142.373C1744.81 161.651 1737.2 177.651 1736.55 177.782C1735.89 178.044 1729.6 166.766 1722.38 152.996C1710.84 130.701 1708.09 126.505 1699.56 117.456L1689.86 107.358H1648.02L1648.42 93.1942C1649.07 74.9652 1650.78 71.9489 1659.96 71.9489C1664.42 71.9489 1667.56 72.8669 1670.71 74.9652C1673.2 76.6701 1675.96 78.375 1676.74 78.8995C1677.92 79.6864 1681.6 73.3915 1689.2 58.1789L1700.09 36.4091L1687.5 24.0816C1673.73 10.7049 1664.42 5.06577 1650.65 1.78718C1640.68 -0.573401 1623.63 -0.573401 1615.37 1.65604ZM1655.37 10.1804C1659.56 11.6229 1664.94 14.1147 1667.43 15.5572L1671.76 18.3113L1664.02 33.9173L1656.15 49.5234L1651.56 47.6874C1649.07 46.6382 1643.83 45.7202 1639.89 45.7202C1634.25 45.7202 1632.02 46.376 1628.88 48.9988C1623.24 53.72 1622.06 60.5395 1622.06 88.8664V113.915L1653.66 114.177L1685.27 114.571L1708.48 159.422C1721.2 184.077 1731.82 204.404 1732.22 204.404C1732.61 204.404 1742.05 184.208 1753.33 159.422L1773.66 114.571L1798.97 114.177C1814.18 114.046 1824.02 114.308 1823.76 115.095C1823.63 115.751 1797.66 167.421 1766.32 229.846L1709.27 343.416H1658.65L1682.38 296.204C1695.5 270.238 1705.99 248.075 1705.73 247.157C1705.46 246.107 1693.53 223.42 1679.11 196.666L1652.88 148.012H1622.06V266.041H1577.47V148.012H1557.8V113.915H1577.47V89.9156C1577.47 64.3426 1578.52 55.1626 1582.98 42.3105C1588.62 25.5241 1601.73 12.5409 1616.81 8.34435C1626.52 5.72148 1645.14 6.50835 1655.37 10.1804ZM1472.29 138.439L1472.55 266.041H1427.97V10.3115L1450 10.5738L1471.9 10.9672L1472.29 138.439ZM922.801 31.9502C940.636 39.4254 944.439 63.818 929.751 76.2767C912.703 90.5713 887.13 78.5061 886.999 56.2117C886.999 37.8516 906.014 24.9996 922.801 31.9502ZM1535.9 34.7042C1552.95 46.5071 1550.32 72.4735 1531.31 80.4733C1510.98 88.8664 1490.26 70.1129 1496.29 48.7365C1498.26 41.5236 1505.86 33.3928 1512.16 31.4256C1519.9 29.065 1529.73 30.3765 1535.9 34.7042ZM1513.73 95.1613L1526.45 107.358H1498.78V94.7679C1498.78 87.8173 1499.31 82.4404 1499.96 82.7027C1500.62 82.8338 1506.78 88.6041 1513.73 95.1613ZM1570.39 100.407L1570.26 106.702L1562.39 106.964C1554.65 107.358 1554.52 107.227 1557.8 105.128C1559.63 103.817 1562.91 100.932 1565.01 98.5711C1567.24 96.3416 1569.34 94.3745 1569.73 94.3745C1570.12 94.2433 1570.39 96.9973 1570.39 100.407ZM1072.44 112.472C1076.76 113.784 1082.93 116.407 1086.07 118.243C1091.45 121.521 1100.5 130.439 1103.52 135.554C1104.7 137.783 1105.48 137.39 1111.12 131.226C1124.76 116.538 1139.32 109.981 1157.94 109.981C1184.69 109.981 1204.1 122.701 1211.84 145.389C1214.59 153.52 1214.73 156.274 1215.25 209.912L1215.64 266.041H1171.06L1170.27 166.897L1166.86 160.471C1162.01 150.897 1155.19 146.57 1143.52 145.652C1136.56 145.258 1132.63 145.652 1128.3 147.225C1121.48 149.848 1113.75 158.11 1111.91 164.93C1111.12 167.684 1110.6 190.109 1110.6 217.78V266.041H1067.45L1067.06 217.125C1066.67 173.454 1066.4 167.815 1064.3 163.094C1059.06 151.422 1049.49 145.52 1036.37 145.389C1026.8 145.389 1020.63 147.75 1014.86 153.52C1006.34 161.913 1006.34 161.913 1005.95 216.469L1005.55 266.041H962.406V113.915H1005.68V131.226L1010.67 126.767C1016.96 121.128 1023.91 116.8 1033.09 113.128C1042.8 109.063 1060.76 108.8 1072.44 112.472ZM1355.05 111.948C1380.75 118.636 1401.61 140.275 1409.08 167.815C1412.1 179.093 1412.23 200.994 1409.21 212.272C1400.82 244.14 1377.61 265.254 1345.87 270.238C1326.2 273.254 1304.03 266.435 1289.61 252.796L1282.4 245.976V343.416H1237.81L1238.07 228.928L1238.46 114.571L1260.5 114.177L1282.4 113.915V132.537L1289.08 126.636C1296.69 119.947 1306.79 114.571 1316.1 111.948C1324.89 109.587 1345.74 109.587 1355.05 111.948ZM934.866 266.041H890.277V190.896C890.277 149.455 890.671 115.226 891.195 114.833C891.589 114.308 901.687 113.915 913.49 113.915H934.866V266.041ZM1543.37 266.041H1498.78V113.915H1543.37V266.041ZM1851.69 216.6C1858.51 220.272 1865.33 229.583 1866.64 237.19C1869 251.353 1859.03 266.566 1845.26 269.844C1836.48 272.074 1829.4 270.762 1821.79 265.648C1803.56 253.32 1806.05 225.387 1825.99 216.076C1833.46 212.535 1844.48 212.797 1851.69 216.6Z" fill="white"/>
<path d="M1313.48 148.012C1290.13 153.914 1276.76 177.388 1282.92 201.65C1287.9 221.059 1303.51 233.255 1323.71 233.255C1346.53 233.255 1363.44 217.125 1364.75 193.781C1365.67 176.733 1359.9 163.356 1347.84 154.569C1339.18 148.406 1323.97 145.389 1313.48 148.012ZM1354.53 175.552C1358.85 177.782 1359.77 193.388 1356.36 203.355C1353.87 210.699 1346.66 219.485 1340.23 222.633C1329.87 228.01 1312.69 227.747 1309.67 222.37C1307.31 218.174 1307.71 200.732 1310.2 195.093C1312.82 189.191 1320.95 180.011 1325.8 177.388C1334.07 173.192 1348.36 172.274 1354.53 175.552Z" fill="white"/>
<path d="M866.358 228.343V225.216H863.232H802.703L864.232 152.264L864.969 151.391V150.249V112.452V109.326H861.842H743.45H740.324V112.452V151.638V154.765H743.45H800.735L740.483 227.742L739.768 228.608V229.732V267.529V270.655H742.894H863.232H866.358V267.529V228.343Z" stroke="white" stroke-width="6.25309"/>
<path d="M882.964 124.958L867.956 106.199L867.331 153.097L807.927 222.507H840.443L882.964 171.857V124.958Z" fill="white"/>
<path d="M884.214 241.266L869.207 222.507V273.782H737.267L752.274 292.541H884.214V241.266Z" fill="white"/>
<path d="M752.274 176.234L737.267 157.475H796.671L781.038 176.234H752.274Z" fill="white"/>
<defs>
<filter id="filter0_d_23_32" x="0" y="70.2451" width="656.267" height="233.154" filterUnits="userSpaceOnUse" color-interpolation-filters="sRGB">
<feFlood flood-opacity="0" result="BackgroundImageFix"/>
<feColorMatrix in="SourceAlpha" type="matrix" values="0 0 0 0 0 0 0 0 0 0 0 0 0 0 0 0 0 0 127 0" result="hardAlpha"/>
<feOffset dy="4"/>
<feComposite in2="hardAlpha" operator="out"/>
<feColorMatrix type="matrix" values="0 0 0 0 0 0 0 0 0 0 0 0 0 0 0 0 0 0 1 0"/>
<feBlend mode="normal" in2="BackgroundImageFix" result="effect1_dropShadow_23_32"/>
<feBlend mode="normal" in="SourceGraphic" in2="effect1_dropShadow_23_32" result="shape"/>
</filter>
</defs>
</svg>
